/* XPM */
static char *logo_32x32[] = {
/* columns rows colors chars-per-pixel */
"32 32 127 2 ",
"   c #7E7F7F",
".  c #970707",
"X  c #9C0404",
"o  c #950B0B",
"O  c #921313",
"+  c #911B1B",
"@  c #A50101",
"#  c #A90000",
"$  c #A40909",
"%  c #AD0E0E",
"&  c #A71212",
"*  c #AF1010",
"=  c #A51B1B",
"-  c #B21B1B",
";  c #912222",
":  c #922A2A",
">  c #9A2F2F",
",  c #8F3A3A",
"<  c #943434",
"1  c #9B3232",
"2  c #933A3A",
"3  c #9F3A3A",
"4  c #A52F2F",
"5  c #B62525",
"6  c #B72828",
"7  c #B92D2D",
"8  c #A03434",
"9  c #AF3636",
"0  c #A03838",
"q  c #BD3939",
"w  c #8D4242",
"e  c #884848",
"r  c #944242",
"t  c #9D4040",
"y  c #964D4D",
"u  c #9C4C4C",
"i  c #875050",
"p  c #875A5A",
"a  c #965151",
"s  c #9A5B5B",
"d  c #BC4040",
"f  c #B94B4B",
"g  c #AC5F5F",
"h  c #B95F5F",
"j  c #876262",
"k  c #886B6B",
"l  c #936868",
"z  c #986E6E",
"x  c #8A7373",
"c  c #847B7B",
"v  c #8C7B7B",
"b  c #987474",
"n  c #947E7E",
"m  c #A17C7C",
"M  c #C04444",
"N  c #C24D4D",
"B  c #C15959",
"V  c #C85A5A",
"C  c #C26464",
"Z  c #CB6666",
"A  c #C47070",
"S  c #C97272",
"D  c #CC7C7C",
"F  c #D07373",
"G  c #D27E7E",
"H  c #7F8080",
"J  c #838383",
"K  c #8B8484",
"L  c #878989",
"P  c #8E8E8E",
"I  c #928585",
"U  c #918C8C",
"Y  c #998C8C",
"T  c #8F9090",
"R  c #949393",
"E  c #9A9494",
"W  c #9B9B9B",
"Q  c #A78D8D",
"!  c #B78484",
"~  c #A29797",
"^  c #A09D9D",
"/  c #A4A4A4",
"(  c #A8A6A6",
")  c #ABABAB",
"_  c #B6A9A9",
"`  c #B3B3B3",
"'  c #BBBBBB",
"]  c #C58686",
"[  c #CF8787",
"{  c #D58282",
"}  c #D48989",
"|  c #D88B8B",
" . c #D49494",
".. c #DB9696",
"X. c #DC9C9C",
"o. c #C4A9A9",
"O. c #DDA1A1",
"+. c #D2AEAE",
"@. c #DCAAAA",
"#. c #DEBABA",
"$. c #E1A5A5",
"%. c #E2ADAD",
"&. c #E4B5B5",
"*. c #E7B9B9",
"=. c #E9BEBE",
"-. c #C4C3C3",
";. c #CCCCCC",
":. c #D3CACA",
">. c #D8CECE",
",. c #D4D4D4",
"<. c #DBDBDB",
"1. c #E6C1C1",
"2. c #EAC4C4",
"3. c #ECCBCB",
"4. c #E0D2D2",
"5. c #EFD0D0",
"6. c #ECDFDF",
"7. c #F0D3D3",
"8. c #F2DBDB",
"9. c #E3E3E3",
"0. c #EBEBEB",
"q. c #F4E3E3",
"w. c #F3EBEB",
"e. c #F4F4F4",
"r. c #FAF2F2",
"t. c #FBFBFB",
"y. c None",
/* pixels */
"y.y.y.y.y.y.y.y.y.y.y.y.y.# # # # # # y.y.y.y.y.y.y.y.y.y.y.y.y.",
"y.y.y.y.y.y.y.y.y.y.# * 5 q M q 5 * # # # # y.y.y.y.y.y.y.y.y.y.",
"y.y.y.y.y.y.y.y.@ 5 Z %.3.8.5.2.%.G M * # # # # y.y.y.y.y.y.y.y.",
"y.y.y.y.y.y.y.4 S 3.r.r.q.8.7.2.=.&.X.V * # # # # y.y.y.y.y.y.y.",
"y.y.y.y.y.w m >.t.t.r.q.8.5.1.*.%.$.X.| M # # # # # # y.y.y.y.y.",
"y.y.y.y.p ~ 0.t.t.e.w.6.3.1.#.@.$...| { Z - # # # # # # y.y.y.y.",
"y.y.y.y.E 9.t.t.e.0.0.9.4.#.@.X...[ G F Z 7 # # # # # # y.y.y.y.",
"y.y.y.I <.t.t.0.0.9.<.<.,.;.+. .{ D S Z V 7 # # # # # # # y.y.y.",
"y.y.c ' e.e.e.0.9.<.<.,.;.;.-.o.] A C B N 6 # # # # # # # # y.y.",
"y.y.E 9.e.0.0.9.<.<.,.;.-.-.-.' _ ! h f d - # # # # # # # # y.y.",
"y.c ` e.0.0.9.9.<.,.,.;.-.' ' ` ) ( Q g 9 & @ # # # # # # # # y.",
"y.L ;.0.0.9.<.<.,.;.;.-.-.` ` ) / / W E z > $ # # # # # # # & y.",
"y.T ,.0.9.<.<.,.,.;.-.-.' ` ) / W W E T L c l t = $ # # # # 0 y.",
"K E ,.9.9.<.<.,.,.;.-.-.' ` ) ^ W T P J J J L P I z u 0 8 u n I ",
"K W ;.<.<.,.<.,.;.;.;.' ` ` / W E P L J H J J P U T T T U T T I ",
"U E -.<.<.<.<.,.,.;.-.-.` ) / W T J H     J J L T U U T T T T I ",
"T R ` <.<.<.<.<.<.,.;.' ` ) W R P J H       J L P T T P T P T I ",
"T W ) -.<.9.9.<.<.<.;.-.` ) W R L J H       J J P T P T P T T I ",
"E ^ ) ` ;.<.9.e.0.<.,.-.` ) R R L J J       J L P T T T P T U I ",
"y./ ) ' -.<.0.e.e.<.;.' ` ) W R I J J     c J L I T T P T T U y.",
"y.^ ) ` -.,.9.e.0.<.;.' ` / W T P J J       J J P P T U T T U y.",
"y.^ ) ` -.;.<.<.<.,.-.` ) / R R L J H     H J L P T T T U T I y.",
"y.y./ ) ` -.;.,.;.-.' ` ) W E P L J H     H J J P P P T T U y.y.",
"y.y.^ ( ` ` ' ' -.' ` ) ^ W R P L J J       J L P P T P T I y.y.",
"y.y.y.^ / ) ` ` ` ` / / W R P L J H     H J J L P T T T U y.y.y.",
"y.y.y.y.W / / / / / ^ W E T P J J         J J P T U T T y.y.y.y.",
"y.y.y.y.Y E W W W W W T T P L J J H     J J L I P U U I y.y.y.y.",
"y.y.y.y.y.b n Y U U I K c x k j p i e w , < 1 8 8 8 s y.y.y.y.y.",
"y.y.y.y.y.y.y.a a a y r 2 < : ; + O o . X @ @ # # y.y.y.y.y.y.y.",
"y.y.y.y.y.y.y.y.2 < > : : ; + O O o . . @ @ @ # y.y.y.y.y.y.y.y.",
"y.y.y.y.y.y.y.y.y.y.: ; ; + O O o . . X @ @ y.y.y.y.y.y.y.y.y.y.",
"y.y.y.y.y.y.y.y.y.y.y.y.y.O O O . . X y.y.y.y.y.y.y.y.y.y.y.y.y."
};
