/* XPM */
static char *codimension[] = {
/* columns rows colors chars-per-pixel */
"48 48 155 2 ",
"   c #7D6C6C",
".  c #7E7676",
"X  c #7F7F7F",
"o  c #960404",
"O  c #9B0404",
"+  c #950C0C",
"@  c #921414",
"#  c #911C1C",
"$  c #9B1818",
"%  c #A50000",
"&  c #A90000",
"*  c #AB0909",
"=  c #A61212",
"-  c #AF1010",
";  c #A61A1A",
":  c #A81818",
">  c #B11414",
",  c #B21919",
"<  c #8F2C2C",
"1  c #912424",
"2  c #922C2C",
"3  c #992B2B",
"4  c #8C3535",
"5  c #8B3B3B",
"6  c #943333",
"7  c #963A3A",
"8  c #9A3D3D",
"9  c #AF2828",
"0  c #B62323",
"q  c #B52E2E",
"w  c #B82D2D",
"e  c #A13232",
"r  c #A13C3C",
"t  c #B63434",
"y  c #BB3232",
"u  c #894545",
"i  c #864D4D",
"p  c #8C4C4C",
"a  c #964545",
"s  c #964B4B",
"d  c #9B4B4B",
"f  c #895454",
"g  c #895D5D",
"h  c #965454",
"j  c #9C5252",
"k  c #995E5E",
"l  c #A84D4D",
"z  c #B24343",
"x  c #BB4242",
"c  c #BC4A4A",
"v  c #BD5151",
"b  c #BC5A5A",
"n  c #896565",
"m  c #826C6C",
"M  c #8D6E6E",
"N  c #916565",
"B  c #976D6D",
"V  c #827373",
"C  c #8B7575",
"Z  c #837C7C",
"A  c #8D7B7B",
"S  c #967171",
"D  c #947C7C",
"F  c #987878",
"G  c #AD6868",
"H  c #C34A4A",
"J  c #C55353",
"K  c #C25C5C",
"L  c #C85959",
"P  c #C26262",
"I  c #CB6363",
"U  c #C46868",
"Y  c #CD6C6C",
"T  c #C67171",
"R  c #CB7373",
"E  c #C17B7B",
"W  c #CC7B7B",
"Q  c #D17575",
"!  c #D37D7D",
"~  c #7E8383",
"^  c #838383",
"/  c #8B8585",
"(  c #858B8B",
")  c #8C8C8C",
"_  c #928585",
"`  c #918D8D",
"'  c #9A8B8B",
"]  c #8F9191",
"[  c #8E9898",
"{  c #929292",
"}  c #9C9595",
"|  c #979A9A",
" . c #9B9B9B",
".. c #A08181",
"X. c #B58585",
"o. c #A29696",
"O. c #A89595",
"+. c #A09C9C",
"@. c #BD9F9F",
"#. c #9EA1A1",
"$. c #A4A4A4",
"%. c #A7ADAD",
"&. c #ABACAC",
"*. c #B2A9A9",
"=. c #ADB6B6",
"-. c #B3B3B3",
";. c #B7B8B8",
":. c #BBBBBB",
">. c #CE8383",
",. c #CB8888",
"<. c #D38383",
"1. c #D28A8A",
"2. c #D98C8C",
"3. c #C89A9A",
"4. c #D49090",
"5. c #DB9494",
"6. c #D39A9A",
"7. c #DC9C9C",
"8. c #DBA3A3",
"9. c #DFACAC",
"0. c #C6BBBB",
"q. c #D0B7B7",
"w. c #DABABA",
"e. c #E0A3A3",
"r. c #E3AAAA",
"t. c #E3B3B3",
"y. c #E6BBBB",
"u. c #E8BBBB",
"i. c #BFC2C2",
"p. c #C4C4C4",
"a. c #C6CACA",
"s. c #CCCCCC",
"d. c #D4D4D4",
"f. c #D9D3D3",
"g. c #DCDCDC",
"h. c #E4C2C2",
"j. c #EAC5C5",
"k. c #EDCCCC",
"l. c #E2D5D5",
"z. c #EFD2D2",
"x. c #ECDCDC",
"c. c #F1D5D5",
"v. c #F2DCDC",
"b. c #DBE1E1",
"n. c #E3E3E3",
"m. c #E7E8E8",
"M. c #EBEBEB",
"N. c #F5E4E4",
"B. c #F7EAEA",
"V. c #F9EEEE",
"C. c #EFF1F1",
"Z. c #F3F3F3",
"A. c #FBF4F4",
"S. c #FDFDFD",
"D. c None",
/* pixels */
"D.D.D.D.D.D.D.D.D.D.D.D.D.D.D.D.D.D.D.D.D.D.D.& & D.D.D.D.D.D.D.D.D.D.D.D.D.D.D.D.D.D.D.D.D.D.D.",
"D.D.D.D.D.D.D.D.D.D.D.D.D.D.D.D.D.& & % & & & & & & & & & & & D.D.D.D.D.D.D.D.D.D.D.D.D.D.D.D.D.",
"D.D.D.D.D.D.D.D.D.D.D.D.D.D.% % & & , y H L J H y , & & & & & & & & D.D.D.D.D.D.D.D.D.D.D.D.D.D.",
"D.D.D.D.D.D.D.D.D.D.D.D.& % & w I 7.k.N.N.v.v.k.u.7.Y y * & & & & & & & D.D.D.D.D.D.D.D.D.D.D.D.",
"D.D.D.D.D.D.D.D.D.D.D.% % t <.c.S.S.S.V.N.v.c.z.j.j.u.5.L , & & & & & & & D.D.D.D.D.D.D.D.D.D.D.",
"D.D.D.D.D.D.D.D.D.% + e ,.c.S.S.A.V.N.N.c.z.j.j.u.u.t.r.7.I - & & & & & & & & D.D.D.D.D.D.D.D.D.",
"D.D.D.D.D.D.D.D.# p o.b.S.S.S.A.B.N.v.c.z.j.h.u.t.r.e.7.7.5.J * & & & & & & & & D.D.D.D.D.D.D.D.",
"D.D.D.D.D.D.D.4 m =.Z.S.S.S.Z.V.N.v.c.k.j.h.u.t.r.e.7.5.2.2.Q w & & & & & & & & & D.D.D.D.D.D.D.",
"D.D.D.D.D.D.u V =.Z.S.S.S.Z.Z.C.C.x.k.h.h.t.t.9.e.7.5.2.<.! Q H * & & & & & & & & & D.D.D.D.D.D.",
"D.D.D.D.D.i Z =.A.S.S.S.Z.C.C.M.n.n.f.h.t.9.8.8.5.2.1.<.Q Q Q L , & & & & & & & & & & D.D.D.D.D.",
"D.D.D.D.D.  $.Z.S.S.Z.Z.C.M.M.n.n.n.g.d.w.8.6.6.4.1.! W Q Y I L 0 & & & & & & & & & & D.D.D.D.D.",
"D.D.D.D.  ] n.S.S.A.Z.C.M.M.n.n.g.g.d.d.d.q.6.4.,.>.W T I I L J 0 & & & & & & & & & & & D.D.D.D.",
"D.D.D.V Z a.S.S.Z.C.C.m.m.n.g.g.f.d.d.s.s.a.0.3.>.T T U P L J H , & & & & & & & & & & & & D.D.D.",
"D.D.D.. $.C.S.Z.C.C.M.n.n.n.g.g.d.d.s.a.p.p.i.:.@.E U b K v J t , & & & & & & & & & & & & D.D.D.",
"D.D.m ^ a.A.Z.C.C.M.m.n.g.g.f.d.d.s.s.a.p.:.:.;.=.*.X.b v z t t - & & & & & & & & & & & & & D.D.",
"D.D..  .m.Z.C.M.n.n.n.g.g.f.d.d.s.a.p.p.:.;.;.-.-.%.%.O.G z t q * & & & & & & & & & & & & & D.D.",
"D.D.Z =.C.C.M.n.n.n.g.g.f.f.d.s.s.a.0.:.:.-.&.-.&.&.$.$.#...l ; % % & & & & & & & & & & & & D.D.",
"D.C ^ a.C.M.m.n.b.g.g.g.d.d.s.s.p.p.0.:.;.-.&.&.$.+.+.| | | { N 3 % & & & & & & & & & & & * r D.",
"D.Z ` d.M.n.n.n.g.g.f.g.d.d.s.s.p.i.:.:.;.&.&.$.$.+.| | { { ) ( ( M 8 ; & & & & & & & & & = B D.",
"D.^ } f.M.n.n.n.g.g.g.d.d.s.s.s.p.0.:.=.&.&.&.$. .| } { ` ( ^ ^ ( ( ] _ k r ; & & & & & & d ` D.",
"D.^ } d.m.n.g.g.g.f.g.d.d.s.s.a.p.i.;.-.&.&.$.$. .| { ` ( ^ ^ ^ ^ / ( ] [ ] _ S k j d j S ] ` D.",
"D.)  .s.n.b.g.g.g.g.d.d.d.s.a.a.p.:.;.-.&.&.$. .{ ` ) ( ^ Z X ~ ^ ^ ) ` ] ] ] [ [ | ] [ [ ] ` D.",
"_ ` | a.g.g.g.g.g.d.g.d.d.d.s.a.p.i.;.-.&.$.+. .{ ` ( ^ X X X X ^ ^ ^ ` ] { ` ] ] ] ] ` ] ] ` D ",
"_ ` } ;.g.g.d.g.g.g.g.g.f.d.s.a.p.:.;.-.&.$. .| { ) ^ X X X ~ Z ^ ^ ( ( ` ] ] ` ` { ` ] ] ] { D ",
"` { } &.s.g.g.g.g.g.g.f.g.d.d.s.p.:.;.-.&.$. .{ ` ^ ^ Z X X X X ^ ^ ^ ) ) ` ` ] ` ] ] ] { ] ` D ",
"' | | $.:.g.g.g.g.g.n.n.g.g.d.s.a.0.;.-.$.+.| ` ` ^ ^ ^ ~ X X X ~ ^ ^ ( ` { ] ] ` ] ` ` ` ] ` D ",
"D.|  .$.&.a.g.g.n.n.n.n.n.g.f.d.a.p.;.&.&. .| ) ( ( ^ ^ Z X X X Z ^ ^ ( ( ` { ` ] ] ` ] ] ] ` D.",
"D.} $.&.-.:.s.g.n.m.M.M.m.n.g.d.a.p.;.-.$. .| ] ` ^ ^ ^ ~ X X X ^ ^ ^ / ) ` ] { ] ` ] ` ] ] ` D.",
"D.} $.&.-.;.p.s.n.m.C.Z.C.m.n.d.a.0.=.&.$. .} ` ` ( ^ ^ Z X X X X ^ ^ ( ( ] ] ] ` ` ] ` ` ] _ D.",
"D.} $.&.-.:.p.s.g.M.Z.S.Z.M.g.d.a.0.-.&.$. .| ` ) ( ^ ^ ~ X X X X ^ ^ / ) ` ` { ] ] ] ] ] ] _ D.",
"D.} $.&.&.:.p.s.f.n.C.A.C.n.g.s.p.:.-.&.$. .| { ) / ^ ^ ^ X X X ^ ^ ^ ^ ) ` ] ` ` ] ` ] ` ` _ D.",
"D.D.+.&.&.:.p.s.d.g.n.M.m.g.d.a.p.:.&.&.$.| { ] ) / ^ ^ X X X X ^ ^ ^ ( ) ` ] ] ` ] ] ` { ` D.D.",
"D.D.+.$.&.;.:.p.s.f.g.g.g.g.s.p.:.;.&.&. .| | ` ( ( ^ ^ X X X X ^ ^ ^ ( ) ` ] ] ` ] ] ] ` _ D.D.",
"D.D.o.$.&.-.:.:.p.s.d.d.s.s.p.i.:.-.&.$.+.| { ` ) ^ ^ Z X X X X X ^ ^ / ) ] ] ` ` ] ] ` ` D D.D.",
"D.D.D.+.$.&.-.:.i.p.p.a.p.p.p.:.-.&.$.$. .} { ` ( ^ ^ ^ X X X X ^ ^ ^ ( ) ] ] ` ] ` ] ] _ D.D.D.",
"D.D.D.} +.&.&.=.;.:.:.0.:.:.;.-.&.&.$. . .{ ] ( / ^ ^ ^ X X X ^ ^ ^ / ) ` ] ` ] ` ] ] ` D D.D.D.",
"D.D.D.D.} $.$.&.&.-.-.;.;.&.&.&.&.+. .} | ] ) ) / ^ ^ X X X X X X ^ ( ( ` ` ` ] ] ` ` _ D.D.D.D.",
"D.D.D.D.D. .$.$.&.&.&.&.&.&.&.&.$.+.| | ` ` / ( ^ ^ X X X X X ~ ^ ^ / ( ` { ` ] ] ` ` D.D.D.D.D.",
"D.D.D.D.D.'  . . .$.$.&.$.$.+. . .| | { ` ( ( ^ ^ ^ X X X X X Z ^ / ( ` ] { ] { ] ) D D.D.D.D.D.",
"D.D.D.D.D.D.' }  . . .#.+. . .| | { ` ` ( / ^ ^ ^ X X X X X X ~ ( ( ) ] ] ] ] ] ` D D.D.D.D.D.D.",
"D.D.D.D.D.D.D.F ' | | | | | } | { ] ` ( ( ( ( ~ ~ ~ ~ ~ ~ Z Z Z C C D D D D _ _ D D.D.D.D.D.D.D.",
"D.D.D.D.D.D.D.D.k S _ { { { ` ` ) / A C C n g f i u 5 4 2 1 1 $ $ $ = - = = = e D.D.D.D.D.D.D.D.",
"D.D.D.D.D.D.D.D.D.D.d d h h h s a 7 7 6 2 2 # # @ @ + o o o O O % % & & & & D.D.D.D.D.D.D.D.D.D.",
"D.D.D.D.D.D.D.D.D.D.D.7 7 7 7 6 6 6 2 < 1 1 # # @ @ @ + o O O O % % & & & D.D.D.D.D.D.D.D.D.D.D.",
"D.D.D.D.D.D.D.D.D.D.D.D.D.6 6 6 2 2 2 1 1 # # @ @ @ + o o O % % % & & D.D.D.D.D.D.D.D.D.D.D.D.D.",
"D.D.D.D.D.D.D.D.D.D.D.D.D.D.D.2 2 1 1 # # # @ @ + + + o O O % % & D.D.D.D.D.D.D.D.D.D.D.D.D.D.D.",
"D.D.D.D.D.D.D.D.D.D.D.D.D.D.D.D.D.# # # @ @ @ + + + + O O % % D.D.D.D.D.D.D.D.D.D.D.D.D.D.D.D.D.",
"D.D.D.D.D.D.D.D.D.D.D.D.D.D.D.D.D.D.D.D.D.D.D.D.D.D.D.D.D.D.D.D.D.D.D.D.D.D.D.D.D.D.D.D.D.D.D.D."
};
