<svg id="Capa_1" enable-background="new 0 0 465.882 465.882" height="512" viewBox="0 0 465.882 465.882" width="512" xmlns="http://www.w3.org/2000/svg"><path d="m232.941 0c-128.442 0-232.941 104.499-232.941 232.941s104.499 232.941 232.941 232.941c40.961 0 81.239-10.777 116.499-31.179l-29.146-50.416c-26.416 15.284-56.629 23.36-87.353 23.36-96.338 0-174.706-78.368-174.706-174.706s78.368-174.706 174.706-174.706 174.706 78.368 174.706 174.706v25.364c0 19.052-12.241 32.871-29.118 32.871-16.052 0-29.118-13.066-29.118-29.118v-116.47h-40.251c-20.484-17.895-46.948-29.118-76.219-29.118-64.221 0-116.471 52.25-116.471 116.471s52.25 116.471 116.471 116.471c30.582 0 58.232-12.094 79.036-31.442 16.036 19.057 39.754 31.442 66.552 31.442 48.98 0 87.353-40.022 87.353-91.107v-25.364c0-128.442-104.499-232.941-232.941-232.941zm0 291.176c-32.118 0-58.235-26.118-58.235-58.235 0-32.118 26.118-58.235 58.235-58.235 32.118 0 58.235 26.118 58.235 58.235 0 32.118-26.117 58.235-58.235 58.235z"/></svg>