<?xml version="1.0" encoding="UTF-8" standalone="no"?>
<svg
   xmlns:dc="http://purl.org/dc/elements/1.1/"
   xmlns:cc="http://creativecommons.org/ns#"
   xmlns:rdf="http://www.w3.org/1999/02/22-rdf-syntax-ns#"
   xmlns:svg="http://www.w3.org/2000/svg"
   xmlns="http://www.w3.org/2000/svg"
   xmlns:sodipodi="http://sodipodi.sourceforge.net/DTD/sodipodi-0.dtd"
   xmlns:inkscape="http://www.inkscape.org/namespaces/inkscape"
   height="1536"
   viewBox="0 0 1536 1536"
   width="1536"
   id="svg3336"
   version="1.1"
   inkscape:version="0.91 r13725"
   sodipodi:docname="link2.svg">
  <metadata
     id="metadata3344">
    <rdf:RDF>
      <cc:Work
         rdf:about="">
        <dc:format>image/svg+xml</dc:format>
        <dc:type
           rdf:resource="http://purl.org/dc/dcmitype/StillImage" />
        <dc:title></dc:title>
      </cc:Work>
    </rdf:RDF>
  </metadata>
  <defs
     id="defs3342" />
  <sodipodi:namedview
     pagecolor="#ffffff"
     bordercolor="#666666"
     borderopacity="1"
     objecttolerance="10"
     gridtolerance="10"
     guidetolerance="10"
     inkscape:pageopacity="0"
     inkscape:pageshadow="2"
     inkscape:window-width="2072"
     inkscape:window-height="1330"
     id="namedview3340"
     showgrid="false"
     inkscape:snap-grids="true"
     inkscape:snap-page="false"
     fit-margin-top="0"
     fit-margin-left="0"
     fit-margin-right="0"
     fit-margin-bottom="0"
     inkscape:zoom="0.67466518"
     inkscape:cx="768"
     inkscape:cy="829.75652"
     inkscape:window-x="327"
     inkscape:window-y="7"
     inkscape:window-maximized="0"
     inkscape:current-layer="svg3336" />
  <path
     d="m 1280,800 0,-480 q 0,-26 -19,-45 -19,-19 -45,-19 l -480,0 q -42,0 -59,39 -17,41 14,70 l 144,144 -534,534 q -19,19 -19,45 0,26 19,45 l 102,102 q 19,19 45,19 26,0 45,-19 l 534,-534 144,144 q 18,19 45,19 12,0 25,-5 39,-17 39,-59 z m 256,-512 0,960 q 0,119 -84.5,203.5 Q 1367,1536 1248,1536 l -960,0 Q 169,1536 84.5,1451.5 0,1367 0,1248 L 0,288 Q 0,169 84.5,84.5 169,0 288,0 l 960,0 Q 1367,0 1451.5,84.5 1536,169 1536,288 Z"
     id="path3338"
     inkscape:connector-curvature="0" />
</svg>
