<?xml version="1.0" encoding="iso-8859-1"?>
<!-- Generator: Adobe Illustrator 16.0.0, SVG Export Plug-In . SVG Version: 6.00 Build 0)  -->
<!DOCTYPE svg PUBLIC "-//W3C//DTD SVG 1.1//EN" "http://www.w3.org/Graphics/SVG/1.1/DTD/svg11.dtd">
<svg version="1.1" id="Capa_1" xmlns="http://www.w3.org/2000/svg" xmlns:xlink="http://www.w3.org/1999/xlink" x="0px" y="0px"
	 width="488.506px" height="488.506px" viewBox="0 0 488.506 488.506" style="enable-background:new 0 0 488.506 488.506;"
	 xml:space="preserve">
<g>
	<path d="M474.946,18.799C463.866,7.723,447.93,2.997,432.605,6.246L80.841,80.865c-20,4.244-34.85,21.106-36.527,41.486
		c-1.683,20.38,10.209,39.444,29.247,46.904l123.833,48.525L17.382,361.746C7.39,369.736,1.15,381.505,0.144,394.26
		c-1.006,12.754,3.311,25.354,11.92,34.81l35.577,39.071c8.66,9.511,20.895,14.99,33.759,15.124
		c12.871,0.129,25.211-5.099,34.062-14.437L278.18,297.252l46.568,120.999c7.362,19.127,26.434,31.143,46.869,29.521
		c20.431-1.627,37.371-16.493,41.621-36.543l74.261-350.088C490.747,45.814,486.028,29.879,474.946,18.799z"/>
</g>
<g>
</g>
<g>
</g>
<g>
</g>
<g>
</g>
<g>
</g>
<g>
</g>
<g>
</g>
<g>
</g>
<g>
</g>
<g>
</g>
<g>
</g>
<g>
</g>
<g>
</g>
<g>
</g>
<g>
</g>
</svg>
