<svg viewBox="0 0 511 511.99942" xmlns="http://www.w3.org/2000/svg"><path d="m471.453125 333.5625h-52.953125c-2.101562 0-3.8125-1.710938-3.8125-3.808594v-147.515625c0-2.097656 1.710938-3.808593 3.8125-3.808593h52.953125c11.511719 0 22.566406-4.785157 30.320313-13.128907 7.664062-8.25 11.433593-18.964843 10.605468-30.179687-1.53125-20.941406-19.199218-37.347656-40.21875-37.347656h-53.660156c-2.101562 0-3.8125-1.710938-3.8125-3.8125v-52.921876c0-11.515624-4.78125-22.570312-13.136719-30.320312-8.242187-7.664062-18.957031-11.4375-30.171875-10.605469-20.949218 1.539063-37.355468 19.207031-37.355468 40.214844v53.632813c0 2.101562-1.710938 3.8125-3.8125 3.8125h-147.511719c-2.101563 0-3.8125-1.710938-3.8125-3.8125v-52.921876c0-11.515624-4.78125-22.570312-13.125-30.320312-8.253907-7.664062-18.957031-11.4375-30.183594-10.605469-20.9375 1.539063-37.34375 19.207031-37.34375 40.214844v53.632813c0 2.101562-1.710937 3.8125-3.820313 3.8125h-52.875c-11.515624 0-22.570312 4.78125-30.320312 13.125-7.664062 8.253906-11.4375 18.96875-10.605469 30.183593 1.539063 20.9375 19.207031 37.347657 40.214844 37.347657h53.585937c2.109376 0 3.820313 1.710937 3.820313 3.808593v147.515625c0 2.097656-1.710937 3.808594-3.820313 3.808594h-52.875c-11.515624 0-22.570312 4.792969-30.320312 13.136719-7.664062 8.242187-11.4375 18.96875-10.605469 30.183593 1.539063 20.9375 19.207031 37.34375 40.214844 37.34375h53.585937c2.109376 0 3.820313 1.710938 3.820313 3.8125v52.914063c0 11.523437 4.78125 22.566406 13.125 30.332031 8.253906 7.664063 18.96875 11.425782 30.183594 10.605469 20.9375-1.542969 37.34375-19.210937 37.34375-40.230469v-53.621094c0-2.101562 1.710937-3.8125 3.8125-3.8125h147.511719c2.101562 0 3.8125 1.710938 3.8125 3.8125v52.914063c0 11.523437 4.792968 22.578125 13.136718 30.332031 7.5 6.960938 17.046875 10.714844 27.148438 10.714844 1.003906 0 2.011718-.042969 3.03125-.109375 20.941406-1.542969 37.347656-19.210937 37.347656-40.230469v-53.621094c0-2.101562 1.710938-3.8125 3.8125-3.8125h53.660156c21.019532 0 38.6875-16.40625 40.21875-37.34375.828125-11.214843-2.941406-21.941406-10.605468-30.183593-7.753907-8.34375-18.808594-13.136719-30.320313-13.136719zm-137.429687-3.808594c0 2.097656-1.710938 3.808594-3.8125 3.808594h-147.511719c-2.101563 0-3.8125-1.710938-3.8125-3.808594v-147.515625c0-2.097656 1.710937-3.808593 3.8125-3.808593h147.511719c2.101562 0 3.8125 1.710937 3.8125 3.808593zm0 0"/></svg>