<?xml version="1.0" encoding="UTF-8" standalone="no"?>
<svg
   xmlns:dc="http://purl.org/dc/elements/1.1/"
   xmlns:cc="http://creativecommons.org/ns#"
   xmlns:rdf="http://www.w3.org/1999/02/22-rdf-syntax-ns#"
   xmlns:svg="http://www.w3.org/2000/svg"
   xmlns="http://www.w3.org/2000/svg"
   xmlns:sodipodi="http://sodipodi.sourceforge.net/DTD/sodipodi-0.dtd"
   xmlns:inkscape="http://www.inkscape.org/namespaces/inkscape"
   viewBox="0 0 511 511.99942"
   version="1.1"
   id="svg862"
   sodipodi:docname="hiddencomment.svg"
   inkscape:version="0.92.5 (2060ec1f9f, 2020-04-08)">
  <metadata
     id="metadata868">
    <rdf:RDF>
      <cc:Work
         rdf:about="">
        <dc:format>image/svg+xml</dc:format>
        <dc:type
           rdf:resource="http://purl.org/dc/dcmitype/StillImage" />
      </cc:Work>
    </rdf:RDF>
  </metadata>
  <defs
     id="defs866" />
  <sodipodi:namedview
     pagecolor="#ffffff"
     bordercolor="#666666"
     borderopacity="1"
     objecttolerance="10"
     gridtolerance="10"
     guidetolerance="10"
     inkscape:pageopacity="0"
     inkscape:pageshadow="2"
     inkscape:window-width="1920"
     inkscape:window-height="1016"
     id="namedview864"
     showgrid="false"
     inkscape:zoom="1.6796894"
     inkscape:cx="255.5"
     inkscape:cy="255.99971"
     inkscape:window-x="0"
     inkscape:window-y="27"
     inkscape:window-maximized="1"
     inkscape:current-layer="svg862" />
  <path
     d="m471.453125 333.5625h-52.953125c-2.101562 0-3.8125-1.710938-3.8125-3.808594v-147.515625c0-2.097656 1.710938-3.808593 3.8125-3.808593h52.953125c11.511719 0 22.566406-4.785157 30.320313-13.128907 7.664062-8.25 11.433593-18.964843 10.605468-30.179687-1.53125-20.941406-19.199218-37.347656-40.21875-37.347656h-53.660156c-2.101562 0-3.8125-1.710938-3.8125-3.8125v-52.921876c0-11.515624-4.78125-22.570312-13.136719-30.320312-8.242187-7.664062-18.957031-11.4375-30.171875-10.605469-20.949218 1.539063-37.355468 19.207031-37.355468 40.214844v53.632813c0 2.101562-1.710938 3.8125-3.8125 3.8125h-147.511719c-2.101563 0-3.8125-1.710938-3.8125-3.8125v-52.921876c0-11.515624-4.78125-22.570312-13.125-30.320312-8.253907-7.664062-18.957031-11.4375-30.183594-10.605469-20.9375 1.539063-37.34375 19.207031-37.34375 40.214844v53.632813c0 2.101562-1.710937 3.8125-3.820313 3.8125h-52.875c-11.515624 0-22.570312 4.78125-30.320312 13.125-7.664062 8.253906-11.4375 18.96875-10.605469 30.183593 1.539063 20.9375 19.207031 37.347657 40.214844 37.347657h53.585937c2.109376 0 3.820313 1.710937 3.820313 3.808593v147.515625c0 2.097656-1.710937 3.808594-3.820313 3.808594h-52.875c-11.515624 0-22.570312 4.792969-30.320312 13.136719-7.664062 8.242187-11.4375 18.96875-10.605469 30.183593 1.539063 20.9375 19.207031 37.34375 40.214844 37.34375h53.585937c2.109376 0 3.820313 1.710938 3.820313 3.8125v52.914063c0 11.523437 4.78125 22.566406 13.125 30.332031 8.253906 7.664063 18.96875 11.425782 30.183594 10.605469 20.9375-1.542969 37.34375-19.210937 37.34375-40.230469v-53.621094c0-2.101562 1.710937-3.8125 3.8125-3.8125h147.511719c2.101562 0 3.8125 1.710938 3.8125 3.8125v52.914063c0 11.523437 4.792968 22.578125 13.136718 30.332031 7.5 6.960938 17.046875 10.714844 27.148438 10.714844 1.003906 0 2.011718-.042969 3.03125-.109375 20.941406-1.542969 37.347656-19.210937 37.347656-40.230469v-53.621094c0-2.101562 1.710938-3.8125 3.8125-3.8125h53.660156c21.019532 0 38.6875-16.40625 40.21875-37.34375.828125-11.214843-2.941406-21.941406-10.605468-30.183593-7.753907-8.34375-18.808594-13.136719-30.320313-13.136719zm-137.429687-3.808594c0 2.097656-1.710938 3.808594-3.8125 3.808594h-147.511719c-2.101563 0-3.8125-1.710938-3.8125-3.808594v-147.515625c0-2.097656 1.710937-3.808593 3.8125-3.808593h147.511719c2.101562 0 3.8125 1.710937 3.8125 3.808593zm0 0"
     id="path860"
     style="fill:#5a5a5a;fill-opacity:1" />
  <path
     style="opacity:1;fill:#4d4d4d;fill-rule:nonzero;stroke:#000000;stroke-width:0.02381393;stroke-miterlimit:2.9000001;stroke-dasharray:none;stroke-dashoffset:0.03;stroke-opacity:1"
     d="m 128.91271,510.46417 c -11.69883,-3.06716 -20.6434,-10.50842 -26.13544,-21.74286 -4.190649,-8.57235 -4.449185,-11.13029 -4.449185,-44.01996 0,-23.30835 -0.143682,-28.2839 -0.844448,-29.24291 -0.812359,-1.11173 -2.039782,-1.16742 -32.297638,-1.46543 l -31.45319,-0.30977 -4.762785,-1.60401 C 14.507081,407.20843 4.5359169,396.00591 1.5508521,381.27401 -0.25377598,372.3678 1.2836093,362.88098 5.8945206,354.4703 9.1511905,348.52986 16.531573,341.53376 22.75767,338.48517 c 9.282241,-4.54501 8.492034,-4.45814 42.822902,-4.70784 26.971826,-0.19618 30.782709,-0.33668 31.70229,-1.16889 0.986254,-0.89255 1.045223,-5.20018 1.045223,-76.34907 0,-64.15559 -0.125958,-75.57554 -0.844406,-76.55881 -0.81224,-1.11161 -2.042866,-1.16764 -32.297638,-1.47049 l -31.453232,-0.31484 -4.762785,-1.60997 C 14.520497,171.42088 4.5257162,160.19769 1.5508521,145.51614 -0.25377598,136.60993 1.2836093,127.1231 5.8945206,118.71242 9.1511905,112.77199 16.531573,105.77589 22.75767,102.7273 c 9.318679,-4.56286 8.474102,-4.470206 42.913574,-4.707839 28.071177,-0.193697 30.827818,-0.300651 31.667622,-1.228626 0.798797,-0.882657 0.947902,-5.090346 1.132745,-31.965987 0.233424,-33.939901 0.207164,-33.668536 4.033999,-41.68694 8.23998,-17.2653368 28.97463,-26.6879264 47.02242,-21.3687191 13.04718,3.8453852 23.71694,14.8187161 27.74464,28.5340321 0.92095,3.136017 1.09027,7.375485 1.38705,34.727611 0.32491,29.94562 0.38292,31.18832 1.49369,31.999964 0.98328,0.718496 12.40186,0.844442 76.5588,0.844442 71.15861,0 75.45642,-0.05888 76.3494,-1.04558 0.83263,-0.920045 0.9743,-4.761946 1.18003,-31.999964 0.25986,-34.404396 0.17885,-33.638073 4.49942,-42.563673 3.23996,-6.693234 11.12271,-14.4790524 17.96813,-17.7471689 11.69263,-5.5822616 23.77648,-5.6355414 34.82787,-0.1535621 10.15802,5.0388335 17.00426,12.933891 20.94342,24.151887 l 1.67243,4.762785 0.30136,31.375664 c 0.2364,24.612318 0.46801,31.54232 1.07446,32.148801 0.60598,0.606017 7.55526,0.842275 32.1488,1.092982 l 31.37571,0.319844 4.76278,1.599802 c 6.43817,2.162565 11.62819,5.326585 16.34603,9.965145 4.71214,4.63295 7.68961,9.36022 9.94059,15.78244 1.49237,4.25787 1.66878,5.56925 1.68105,12.4966 0.0116,6.54386 -0.20087,8.38335 -1.37521,11.90696 -4.76568,14.29953 -16.54896,24.57177 -31.45854,27.42445 -3.49803,0.66928 -10.71631,0.85459 -33.28857,0.85459 -28.02822,0 -28.85481,0.0328 -30.01271,1.1907 -1.17813,1.17812 -1.1907,1.98449 -1.1907,76.38845 0,63.9761 0.126,75.3702 0.84436,76.3534 0.81135,1.11047 2.0506,1.16882 31.70229,1.49259 34.0156,0.37143 33.70584,0.3394 42.16954,4.35889 11.23622,5.33618 18.7575,14.52355 21.82711,26.66221 2.40471,9.50933 0.71878,20.90726 -4.37115,29.55161 -3.1622,5.37046 -10.12314,11.94828 -15.66991,14.80746 -9.20928,4.7471 -7.55255,4.55735 -42.98494,4.9232 -24.83016,0.25638 -31.84037,0.49408 -32.44648,1.10019 -0.6061,0.6061 -0.8438,7.61631 -1.10018,32.44647 -0.36564,35.41158 -0.18304,33.81042 -4.89298,42.9037 -2.88912,5.57788 -9.1173,12.22939 -14.43219,15.41314 -20.12151,12.0533 -45.9812,4.4622 -56.28554,-16.52259 -4.37705,-8.91388 -4.31707,-8.36723 -4.69266,-42.7649 -0.32378,-29.65169 -0.38212,-30.89094 -1.49259,-31.70229 -0.9832,-0.71836 -12.3773,-0.84436 -76.35341,-0.84436 -74.40395,0 -75.21032,0.0126 -76.38845,1.1907 -1.15832,1.15833 -1.19069,1.98449 -1.19069,30.38786 0,32.47067 -0.2029,34.71507 -3.85329,42.62473 -8.06033,17.46511 -27.77432,27.01684 -45.93409,22.25577 z M 332.99722,332.64782 c 1.04389,-0.94471 1.08874,-4.10698 1.08874,-76.76616 V 180.1008 l -1.32317,-0.92678 c -1.1806,-0.82693 -9.42285,-0.92678 -76.50224,-0.92678 -74.38527,0 -75.19164,0.0126 -76.36977,1.1907 -1.17812,1.17812 -1.19069,1.98449 -1.19069,76.36976 0,67.07939 0.0999,75.32164 0.92678,76.50224 l 0.92678,1.32317 h 75.67741 c 69.58318,0 75.7651,-0.0793 76.76616,-0.98529 z"
     id="path879"
     inkscape:connector-curvature="0" />
  <path
     style="opacity:1;fill:#333333;fill-rule:nonzero;stroke:#000000;stroke-width:0.02381393;stroke-miterlimit:2.9000001;stroke-dasharray:none;stroke-dashoffset:0.03;stroke-opacity:1"
     d="m 128.81916,510.44041 c -7.13578,-1.86956 -12.27036,-4.9131 -18.00055,-10.66986 -3.98083,-3.99929 -5.61387,-6.18463 -7.58945,-10.15622 -4.531626,-9.11014 -4.46359,-8.50735 -4.851995,-42.98508 -0.271252,-24.07809 -0.515119,-30.94877 -1.119975,-31.55346 -0.605963,-0.60579 -7.624552,-0.84473 -32.446475,-1.1046 l -31.673254,-0.3316 -4.402093,-1.59701 C 15.921117,407.3938 6.7225784,398.11397 2.6618301,385.73862 1.3252588,381.66536 1.0935457,379.91296 1.0857602,373.81911 c -0.00808,-6.32419 0.1878939,-7.72335 1.7074376,-12.19034 3.9620658,-11.64722 13.3420612,-21.14047 25.1399962,-25.44353 5.609776,-2.04605 13.527416,-2.51214 43.043923,-2.53389 20.407428,-0.0151 24.944457,-0.16628 25.897646,-0.86327 1.133507,-0.82884 1.155648,-2.2997 1.155648,-76.77015 0,-61.46621 -0.147248,-76.0725 -0.773215,-76.69906 -0.606808,-0.60739 -7.525623,-0.84039 -32.148801,-1.08265 l -31.375586,-0.30869 -4.762785,-1.66999 C 22.319343,173.9256 18.432888,171.55257 13.337638,166.71258 8.2949024,161.92248 5.0408071,156.80026 2.7000885,149.9682 1.2750434,145.8088 1.0688466,144.30034 1.0724764,138.06124 c 0.00367,-6.30359 0.2061287,-7.73791 1.7207214,-12.19034 3.962735,-11.64919 13.3527792,-21.15128 25.1399962,-25.43997 5.685439,-2.068602 13.383097,-2.525073 42.860038,-2.541594 24.349812,-0.01363 25.191503,-0.05215 26.344156,-1.204794 1.154184,-1.154184 1.19131,-1.998477 1.210748,-27.534853 0.02316,-30.464522 0.426746,-36.772535 2.722064,-42.547848 5.25829,-13.230492 16.27732,-22.6131983 29.96443,-25.514709 8.16762,-1.73144368 16.78905,-0.56622411 24.91614,3.3675148 6.91332,3.3462386 14.2765,10.5802152 17.82651,17.5137002 4.48742,8.764313 4.48398,8.733814 4.87347,43.282609 0.2716,24.091794 0.51517,30.948299 1.12089,31.553453 0.62443,0.623847 15.11048,0.806214 75.01386,0.944341 40.832,0.09416 75.10744,0.01566 76.16765,-0.174455 1.0602,-0.190106 2.16966,-0.802952 2.46546,-1.361882 0.2958,-0.558931 0.67214,-14.813436 0.83632,-31.676672 0.25778,-26.478044 0.43687,-31.147699 1.31282,-34.23252 5.76922,-20.3172286 26.14138,-33.2108389 46.16858,-29.2202634 12.30707,2.4522776 22.77962,10.6147474 28.52632,22.2338474 3.86437,7.813261 3.78271,7.0006 4.15386,41.338601 0.26565,24.577603 0.50668,31.542998 1.1125,32.148801 0.606,0.605987 7.56362,0.845138 32.1488,1.105025 l 31.37543,0.331669 4.76278,1.593139 c 11.08301,3.70725 19.54939,11.12295 24.42846,21.39687 7.94476,16.72942 3.14486,36.77918 -11.5141,48.09575 -4.3686,3.37251 -9.39604,5.93268 -14.7004,7.48603 -3.12953,0.91645 -7.42252,1.08856 -34.65009,1.38914 -24.34206,0.26873 -31.24557,0.51084 -31.85113,1.11704 -1.14272,1.14394 -1.14268,152.09874 5e-5,153.24261 0.60445,0.60506 7.49023,0.85581 31.55345,1.14901 34.38377,0.41897 33.92559,0.36801 42.98492,4.78079 6.5936,3.21172 14.11411,10.53013 17.46003,16.99082 10.41936,20.11887 2.43053,44.01432 -18.19615,54.42664 -7.09587,3.58198 -7.46484,3.61761 -41.65308,4.02248 -24.54521,0.29068 -31.54365,0.53995 -32.1488,1.14507 -0.6053,0.60526 -0.85336,7.59763 -1.14049,32.1488 -0.39998,34.19937 -0.43208,34.53142 -4.02711,41.65312 -10.26561,20.33606 -33.36325,28.30697 -53.6177,18.50326 -7.13064,-3.45143 -14.27064,-10.58329 -17.78741,-17.76714 -4.42457,-9.03825 -4.37396,-8.5844 -4.79313,-42.98492 -0.29321,-24.06321 -0.54395,-30.949 -1.14901,-31.55345 -1.14379,-1.14263 -152.09861,-1.14278 -153.24262,-1.5e-4 -0.60683,0.60612 -0.84513,7.54779 -1.10359,32.1488 l -0.32964,31.37578 -1.58414,4.76278 c -3.71726,11.17615 -10.99012,19.42972 -21.58759,24.49856 -7.94007,3.79781 -17.95377,4.77786 -26.34759,2.57868 z M 333.0144,332.56156 c 0.62519,-0.62519 0.80376,-15.33771 0.92941,-76.57263 0.14384,-70.10266 0.081,-75.86056 -0.83568,-76.62138 -1.43084,-1.18749 -152.14976,-1.23534 -153.33642,-0.0487 -1.18666,1.18666 -1.1388,151.90557 0.0487,153.33641 0.76082,0.91672 6.51873,0.97953 76.62138,0.83569 61.23493,-0.12565 75.94744,-0.30423 76.57263,-0.92941 z"
     id="path881"
     inkscape:connector-curvature="0" />
  <path
     style="opacity:1;fill:#666666;fill-rule:nonzero;stroke:#000000;stroke-width:0.02381393;stroke-miterlimit:2.9000001;stroke-dasharray:none;stroke-dashoffset:0.03;stroke-opacity:1"
     d="m 131.36991,510.79909 c -8.72126,-1.69351 -14.3474,-4.91477 -21.30712,-12.19942 -5.7204,-5.98747 -9.65186,-13.54598 -10.557214,-20.29696 -0.32934,-2.45581 -0.804815,-17.52099 -1.056612,-33.47819 -0.340789,-21.59731 -0.644393,-29.19967 -1.187797,-29.74307 -0.546011,-0.54601 -8.762608,-0.84924 -32.600807,-1.20312 L 32.789555,413.4052 28.07656,411.58768 C 17.537663,407.52346 9.6554659,400.46882 5.1678698,391.08421 c -3.3007415,-6.90262 -3.8815357,-9.52085 -3.8815357,-17.498 0,-5.31527 0.2777261,-7.43129 1.4712192,-11.20937 4.496396,-14.23361 17.4736037,-25.44568 31.9350257,-27.59127 2.4191,-0.35891 17.311825,-0.83202 33.094943,-1.05135 22.329914,-0.31031 28.868117,-0.57053 29.469734,-1.17289 1.127178,-1.12856 1.144509,-152.09742 0.01762,-153.22418 -0.580327,-0.58024 -8.108011,-0.85553 -32.456905,-1.18693 l -31.701337,-0.43147 -4.872678,-1.8607 C 15.74994,171.08705 6.6096165,161.63016 2.7594707,149.49096 0.65748996,142.86358 0.65668565,133.26939 2.7575533,126.61897 7.2532986,112.38741 20.217623,101.1848 34.692579,99.023551 37.111679,98.66236 52.004416,98.189248 67.787551,97.972196 90.102016,97.66533 96.656097,97.405621 97.257286,96.804439 97.859427,96.202298 98.11551,89.553068 98.41519,66.739356 98.641101,49.541424 99.080325,35.761027 99.478988,33.362974 101.18698,23.08909 107.5048,13.465873 116.4851,7.4594795 c 16.14364,-10.7975243 35.89156,-8.8846489 49.7582,4.8198105 4.51106,4.458302 8.19196,10.228597 10.00574,15.685333 1.59851,4.809125 1.86792,9.470971 2.38022,41.188644 0.32627,20.199598 0.62049,27.128444 1.17558,27.68369 0.95945,0.959731 149.53605,1.454775 152.03008,0.506552 1.27892,-0.486251 1.63165,-1.077843 1.88341,-3.158864 0.17037,-1.408308 0.5513,-16.08985 0.84651,-32.625645 0.51165,-28.659441 0.5973,-30.231822 1.83215,-33.631445 3.17959,-8.753713 9.99267,-17.078409 17.68931,-21.6140368 15.49847,-9.1332509 33.38236,-7.30376594 46.98614,4.8065848 5.7916,5.155794 10.99529,14.289824 12.17951,21.378677 0.34528,2.066857 0.84303,17.22501 1.10612,33.684783 0.34417,21.533196 0.67418,30.122712 1.17662,30.625156 0.50398,0.50398 9.35568,0.828118 31.81074,1.164853 18.4485,0.276652 32.20294,0.727676 33.79152,1.108067 1.47349,0.352834 5.09023,1.806861 8.0372,3.231171 15.60636,7.54278 24.62123,24.04226 22.31982,40.85085 -0.77736,5.67751 -2.79946,11.44428 -5.51192,15.7193 -5.77243,9.09774 -16.28206,16.36505 -26.36201,18.22906 -1.65292,0.30566 -16.5829,0.76069 -33.17776,1.01118 -23.1215,0.349 -30.34939,0.63236 -30.92955,1.21253 -1.097,1.09699 -1.11602,152.09288 -0.0193,153.1896 0.55202,0.55202 7.82262,0.85747 28.87438,1.21306 35.10868,0.59304 37.1436,0.79151 44.21099,4.31194 15.00485,7.47428 23.13928,20.03628 23.1618,35.76878 0.0101,7.05992 -1.11174,11.85806 -4.22455,18.0685 -4.11764,8.21523 -13.74853,16.70722 -22.39408,19.74589 -4.14385,1.45644 -9.25192,1.73381 -42.55306,2.31064 -18.35247,0.3179 -26.56923,0.66251 -27.0408,1.13408 -0.47175,0.47174 -0.81437,8.68101 -1.12849,27.03933 -0.56759,33.17072 -0.85146,38.39245 -2.31328,42.55158 -3.03866,8.64555 -11.53066,18.27644 -19.74588,22.39408 -6.04065,3.0277 -11.00323,4.20079 -17.77083,4.20079 -16.04574,0 -29.2415,-8.64928 -36.43512,-23.88171 -3.11751,-6.6013 -3.36701,-9.35161 -3.94328,-43.46732 -0.35556,-21.05004 -0.66106,-28.32241 -1.21298,-28.87439 -0.57557,-0.57563 -14.89615,-0.77483 -65.15447,-0.9063 -35.42921,-0.0927 -69.7717,0.0413 -76.31663,0.29767 l -11.89989,0.46619 -0.39239,2.97674 c -0.21582,1.6372 -0.53353,15.98524 -0.70604,31.88451 -0.35082,32.33345 -0.24064,31.44182 -5.03577,40.74796 -4.45,8.63634 -15.16534,17.0793 -24.83806,19.57072 -5.28448,1.36113 -12.43157,1.6596 -17.2651,0.72102 z M 333.01455,332.56167 c 1.14393,-1.14397 1.14375,-152.09792 -1.8e-4,-153.24244 -1.1438,-1.1444 -152.09799,-1.14485 -153.2426,-4.6e-4 -0.62172,0.62159 -0.81605,12.33522 -0.9877,59.53481 -0.11753,32.31853 -0.0194,66.61741 0.21814,76.21972 0.42199,17.06093 0.46078,17.47087 1.70206,17.99016 0.72779,0.30447 33.355,0.47601 76.40338,0.40169 60.71003,-0.10481 75.2817,-0.27825 75.9069,-0.90348 z"
     id="path883"
     inkscape:connector-curvature="0" />
</svg>
