<?xml version="1.0" encoding="UTF-8" standalone="no"?>
<svg
   xmlns:dc="http://purl.org/dc/elements/1.1/"
   xmlns:cc="http://creativecommons.org/ns#"
   xmlns:rdf="http://www.w3.org/1999/02/22-rdf-syntax-ns#"
   xmlns:svg="http://www.w3.org/2000/svg"
   xmlns="http://www.w3.org/2000/svg"
   xmlns:sodipodi="http://sodipodi.sourceforge.net/DTD/sodipodi-0.dtd"
   xmlns:inkscape="http://www.inkscape.org/namespaces/inkscape"
   viewBox="0 0 20 20"
   version="1.1"
   id="svg878"
   sodipodi:docname="hidecomments.svg"
   width="20"
   height="20"
   inkscape:version="0.92.3 (2405546, 2018-03-11)">
  <metadata
     id="metadata884">
    <rdf:RDF>
      <cc:Work
         rdf:about="">
        <dc:format>image/svg+xml</dc:format>
        <dc:type
           rdf:resource="http://purl.org/dc/dcmitype/StillImage" />
        <dc:title></dc:title>
      </cc:Work>
    </rdf:RDF>
  </metadata>
  <defs
     id="defs882" />
  <sodipodi:namedview
     pagecolor="#ffffff"
     bordercolor="#666666"
     borderopacity="1"
     objecttolerance="10"
     gridtolerance="10"
     guidetolerance="10"
     inkscape:pageopacity="0"
     inkscape:pageshadow="2"
     inkscape:window-width="1873"
     inkscape:window-height="1025"
     id="namedview880"
     showgrid="false"
     fit-margin-top="0"
     fit-margin-left="0"
     fit-margin-right="0"
     fit-margin-bottom="0"
     inkscape:zoom="35.833333"
     inkscape:cx="10"
     inkscape:cy="10"
     inkscape:window-x="47"
     inkscape:window-y="27"
     inkscape:window-maximized="1"
     inkscape:current-layer="svg878" />
  <path
     d="M 3,0 C 1.346,0 0,1.346 0,3 v 14 c 0,1.654 1.346,3 3,3 h 14 c 1.654,0 3,-1.346 3,-3 V 3 C 20,1.346 18.654,0 17,0 Z m 0,2 h 14 c 0.551,0 1,0.449 1,1 v 14 c 0,0.551 -0.449,1 -1,1 H 3 C 2.449,18 2,17.551 2,17 V 3 C 2,2.449 2.449,2 3,2 Z M 7,5 V 7 H 5 v 2 h 2 v 2 H 5 v 2 h 2 v 2 h 2 v -2 h 2 v 2 h 2 v -2 h 2 V 11 H 13 V 9 h 2 V 7 H 13 V 5 H 11 V 7 H 9 V 5 Z m 2,4 h 2 v 2 H 9 Z"
     id="path876"
     inkscape:connector-curvature="0" />
</svg>
