<?xml version="1.0"?>
<svg xmlns="http://www.w3.org/2000/svg" viewBox="0 0 24 24">
    <path d="M 5 2 C 3.346 2 2 3.346 2 5 L 2 19 C 2 20.654 3.346 22 5 22 L 19 22 C 20.654 22 22 20.654 22 19 L 22 5 C 22 3.346 20.654 2 19 2 L 5 2 z M 5 4 L 19 4 C 19.551 4 20 4.449 20 5 L 20 19 C 20 19.551 19.551 20 19 20 L 5 20 C 4.449 20 4 19.551 4 19 L 4 5 C 4 4.449 4.449 4 5 4 z M 9 7 L 9 9 L 7 9 L 7 11 L 9 11 L 9 13 L 7 13 L 7 15 L 9 15 L 9 17 L 11 17 L 11 15 L 13 15 L 13 17 L 15 17 L 15 15 L 17 15 L 17 13 L 15 13 L 15 11 L 17 11 L 17 9 L 15 9 L 15 7 L 13 7 L 13 9 L 11 9 L 11 7 L 9 7 z M 11 11 L 13 11 L 13 13 L 11 13 L 11 11 z"/>
</svg>
