<?xml version="1.0" encoding="UTF-8" standalone="no"?>
<!-- Generator: Adobe Illustrator 16.0.0, SVG Export Plug-In . SVG Version: 6.00 Build 0)  -->

<svg
   xmlns:dc="http://purl.org/dc/elements/1.1/"
   xmlns:cc="http://creativecommons.org/ns#"
   xmlns:rdf="http://www.w3.org/1999/02/22-rdf-syntax-ns#"
   xmlns:svg="http://www.w3.org/2000/svg"
   xmlns="http://www.w3.org/2000/svg"
   xmlns:sodipodi="http://sodipodi.sourceforge.net/DTD/sodipodi-0.dtd"
   xmlns:inkscape="http://www.inkscape.org/namespaces/inkscape"
   version="1.1"
   id="Capa_1"
   x="0px"
   y="0px"
   width="447.674px"
   height="447.674px"
   viewBox="0 0 447.674 447.674"
   style="enable-background:new 0 0 447.674 447.674;"
   xml:space="preserve"
   sodipodi:docname="return.svg"
   inkscape:version="0.92.3 (2405546, 2018-03-11)"><metadata
   id="metadata45"><rdf:RDF><cc:Work
       rdf:about=""><dc:format>image/svg+xml</dc:format><dc:type
         rdf:resource="http://purl.org/dc/dcmitype/StillImage" /><dc:title></dc:title></cc:Work></rdf:RDF></metadata><defs
   id="defs43" /><sodipodi:namedview
   pagecolor="#ffffff"
   bordercolor="#666666"
   borderopacity="1"
   objecttolerance="10"
   gridtolerance="10"
   guidetolerance="10"
   inkscape:pageopacity="0"
   inkscape:pageshadow="2"
   inkscape:window-width="1346"
   inkscape:window-height="771"
   id="namedview41"
   showgrid="false"
   inkscape:zoom="0.52716931"
   inkscape:cx="223.83701"
   inkscape:cy="223.83701"
   inkscape:window-x="67"
   inkscape:window-y="27"
   inkscape:window-maximized="0"
   inkscape:current-layer="Capa_1" />
<g
   id="g8"
   transform="matrix(-1,0,0,1,447.674,0)">
	<g
   id="g6">
		<path
   d="m 182.725,379.151 c -0.572,-1.522 -0.769,-2.816 -0.575,-3.863 0.193,-1.04 -0.472,-1.902 -1.997,-2.566 -1.525,-0.664 -2.286,-1.191 -2.286,-1.567 0,-0.38 -1.093,-0.667 -3.284,-0.855 -2.19,-0.191 -3.283,-0.288 -3.283,-0.288 h -3.71 -3.14 -82.226 c -12.562,0 -23.317,-4.469 -32.264,-13.421 -8.945,-8.946 -13.417,-19.698 -13.417,-32.258 V 123.335 c 0,-12.562 4.471,-23.313 13.417,-32.259 8.947,-8.947 19.702,-13.422 32.264,-13.422 h 91.361 c 2.475,0 4.421,-0.614 5.852,-1.854 1.425,-1.237 2.375,-3.094 2.853,-5.568 0.476,-2.474 0.763,-4.708 0.859,-6.707 0.094,-1.997 0.048,-4.521 -0.144,-7.566 -0.189,-3.044 -0.284,-4.947 -0.284,-5.712 0,-2.474 -0.905,-4.611 -2.712,-6.423 -1.809,-1.804 -3.949,-2.709 -6.423,-2.709 H 82.224 C 59.576,41.115 40.208,49.157 24.123,65.24 8.042,81.323 0,100.688 0,123.338 v 200.994 c 0,22.648 8.042,42.018 24.123,58.095 16.085,16.091 35.453,24.133 58.101,24.133 h 91.365 c 2.475,0 4.422,-0.622 5.852,-1.854 1.425,-1.239 2.375,-3.094 2.853,-5.571 0.476,-2.471 0.763,-4.716 0.859,-6.707 0.094,-1.999 0.048,-4.518 -0.144,-7.563 -0.191,-3.048 -0.284,-4.95 -0.284,-5.714 z"
   id="path2"
   inkscape:connector-curvature="0" />
		<path
   d="M 442.249,210.989 286.935,55.67 c -3.614,-3.612 -7.898,-5.424 -12.847,-5.424 -4.949,0 -9.233,1.812 -12.851,5.424 -3.617,3.617 -5.424,7.904 -5.424,12.85 v 82.226 H 127.907 c -4.952,0 -9.233,1.812 -12.85,5.424 -3.617,3.617 -5.424,7.901 -5.424,12.85 v 109.636 c 0,4.948 1.807,9.232 5.424,12.847 3.621,3.61 7.901,5.427 12.85,5.427 h 127.907 v 82.225 c 0,4.945 1.807,9.233 5.424,12.847 3.617,3.617 7.901,5.428 12.851,5.428 4.948,0 9.232,-1.811 12.847,-5.428 L 442.249,236.69 c 3.617,-3.62 5.425,-7.898 5.425,-12.848 0,-4.948 -1.808,-9.236 -5.425,-12.853 z"
   id="path4"
   inkscape:connector-curvature="0" />
	</g>
</g>
<g
   id="g10"
   transform="matrix(-1,0,0,1,447.674,0)">
</g>
<g
   id="g12"
   transform="matrix(-1,0,0,1,447.674,0)">
</g>
<g
   id="g14"
   transform="matrix(-1,0,0,1,447.674,0)">
</g>
<g
   id="g16"
   transform="matrix(-1,0,0,1,447.674,0)">
</g>
<g
   id="g18"
   transform="matrix(-1,0,0,1,447.674,0)">
</g>
<g
   id="g20"
   transform="matrix(-1,0,0,1,447.674,0)">
</g>
<g
   id="g22"
   transform="matrix(-1,0,0,1,447.674,0)">
</g>
<g
   id="g24"
   transform="matrix(-1,0,0,1,447.674,0)">
</g>
<g
   id="g26"
   transform="matrix(-1,0,0,1,447.674,0)">
</g>
<g
   id="g28"
   transform="matrix(-1,0,0,1,447.674,0)">
</g>
<g
   id="g30"
   transform="matrix(-1,0,0,1,447.674,0)">
</g>
<g
   id="g32"
   transform="matrix(-1,0,0,1,447.674,0)">
</g>
<g
   id="g34"
   transform="matrix(-1,0,0,1,447.674,0)">
</g>
<g
   id="g36"
   transform="matrix(-1,0,0,1,447.674,0)">
</g>
<g
   id="g38"
   transform="matrix(-1,0,0,1,447.674,0)">
</g>
</svg>